# xmcd CD database file
#
# Track frame offsets:
#	150
#	21867
#	45032
#	61647
#	81870
#	93542
#	119452
#	141037
#	158845
#	173584
#	196427
#	231840
#	253072
#
# Disc length: 3781 seconds
#
# Revision: 0
# Processed by: cddbd v1.5.1PL2 Copyright (c) Steve Scherf et al.
# Submitted via: CDex 1.51
#
DISCID=9f0ec30d
DTITLE=Thr Pitch Pine Project - Quarantine
DYEAR=2004
DGENRE=Jazz
TTITLE0=Commentaries
TTITLE1=Invitation
TTITLE2=TK8
TTITLE3=Driving a Car
TTITLE4=Diana
TTITLE5=Funky Jambo
TTITLE6=H.A.T.
TTITLE7=Tim Time
TTITLE8=Quarantine
TTITLE9=Globe
TTITLE10=Platform
TTITLE11=Ordeal
TTITLE12=T.M.A.
EXTD=YEAR: 2004
EXTT0=
EXTT1=
EXTT2=
EXTT3=
EXTT4=
EXTT5=
EXTT6=
EXTT7=
EXTT8=
EXTT9=
EXTT10=
EXTT11=
EXTT12=
PLAYORDER=
